<?xml version="1.0" encoding="utf-8"?>
<!-- Generator: Adobe Illustrator 25.0.0, SVG Export Plug-In . SVG Version: 6.00 Build 0)  -->
<svg version="1.1" id="Capa_1" xmlns="http://www.w3.org/2000/svg" xmlns:xlink="http://www.w3.org/1999/xlink" x="0px" y="0px"
	 viewBox="0 0 48.2 48.2" style="enable-background:new 0 0 48.2 48.2;" xml:space="preserve">
<style type="text/css">
	.st0{fill:#BF2626;}
	.st1{fill:#FFFFFF;}
</style>
<circle class="st0" cx="24.1" cy="24.1" r="23.6"/>
<path class="st1" d="M37.1,16c-0.8,0.4-1.7,0.6-2.6,0.7c0.4-0.1,1-0.8,1.3-1.1c0.4-0.5,0.7-1,0.9-1.6v-0.1c-0.1,0-0.1,0-0.1,0
	c-1,0.5-2,0.9-3.1,1.2c-0.1,0-0.2,0-0.2-0.1c-0.1-0.1-0.2-0.2-0.3-0.3c-0.5-0.4-0.9-0.7-1.5-0.9c-0.7-0.3-1.5-0.4-2.3-0.4
	c-0.8,0.1-1.5,0.3-2.2,0.6c-0.7,0.4-1.3,0.8-1.8,1.4c-0.5,0.6-0.9,1.3-1,2.1C24,18.2,24,19,24.1,19.7c0,0.1,0,0.1-0.1,0.1
	c-4.2-0.6-7.8-2.1-10.6-5.4c-0.1-0.1-0.2-0.1-0.3,0c-1.2,1.9-0.6,4.9,0.9,6.4c0.2,0.2,0.4,0.4,0.6,0.6c-0.1,0-1.1-0.1-2-0.6
	c-0.1-0.1-0.2,0-0.2,0.1c0,0.2,0,0.4,0,0.6c0.2,1.9,1.6,3.6,3.4,4.3c0.2,0.1,0.5,0.2,0.7,0.2c-0.4,0.1-0.8,0.1-2,0.1
	c-0.1,0-0.2,0-0.1,0.2c0.9,2.4,2.8,3.1,4.2,3.5c0.2,0,0.4,0,0.6,0.1l0,0c-0.5,0.7-2.1,1.3-2.9,1.5c-1.4,0.5-2.9,0.7-4.4,0.6
	c-0.2,0-0.3,0-0.4,0c-0.1,0,0,0.1,0.1,0.2c0.3,0.2,0.6,0.4,0.9,0.5c0.9,0.5,1.9,0.9,2.9,1.2c5.3,1.5,11.2,0.4,15.1-3.5
	c3.1-3.1,4.2-7.3,4.2-11.6c0-0.2,0.2-0.3,0.3-0.4c0.8-0.6,1.5-1.3,2.1-2.1c0.1-0.2,0.1-0.3,0.1-0.4l0,0C37.2,15.9,37.2,16,37.1,16z"
	/>
</svg>
