<?xml version="1.0" encoding="utf-8"?>
<!-- Generator: Adobe Illustrator 24.2.3, SVG Export Plug-In . SVG Version: 6.00 Build 0)  -->
<svg version="1.1" id="Capa_1" xmlns="http://www.w3.org/2000/svg" xmlns:xlink="http://www.w3.org/1999/xlink" x="0px" y="0px"
	 viewBox="0 0 48.2 48.2" style="enable-background:new 0 0 48.2 48.2;" xml:space="preserve">
<style type="text/css">
	.st0{fill:#FFFFFF;}
</style>
<g>
	<path class="st0" d="M24.1,0.5c-13,0-23.6,10.6-23.6,23.6c0,13,10.6,23.6,23.6,23.6c13,0,23.6-10.6,23.6-23.6
		C47.7,11.1,37.1,0.5,24.1,0.5z M18.8,34.4h-4.6V19.7h4.6V34.4z M16.5,17.7c-1.4,0-2.6-1.2-2.6-2.6c-0.1-1.5,1.1-2.7,2.6-2.7
		s2.6,1.2,2.6,2.6C19.1,16.5,17.9,17.7,16.5,17.7z M35.9,34.4h-4.5v-7.1c0-1.7,0-3.9-2.4-3.9s-2.7,1.9-2.7,3.8v7.3h-4.6
		c-0.1-0.1-0.1-14.8-0.1-14.8H26v2h0.1c0.6-1.1,2.1-2.4,4.3-2.4c4.6,0,5.5,3,5.5,7V34.4z"/>
</g>
</svg>
