<?xml version="1.0" encoding="utf-8"?>
<!-- Generator: Adobe Illustrator 25.0.0, SVG Export Plug-In . SVG Version: 6.00 Build 0)  -->
<svg version="1.1" id="Capa_1" xmlns="http://www.w3.org/2000/svg" xmlns:xlink="http://www.w3.org/1999/xlink" x="0px" y="0px"
	 viewBox="0 0 48.2 48.2" style="enable-background:new 0 0 48.2 48.2;" xml:space="preserve">
<style type="text/css">
	.st0{fill:#FFFFFF;}
	.st1{fill:#BF2626;}
</style>
<circle class="st0" cx="24.1" cy="25.1" r="23.1"/>
<path class="st1" d="M24.1,0.8c-13,0-23.6,10.6-23.6,23.7C0.5,35,7.3,43.8,16.6,47c1.2,0.2,1.6-0.5,1.6-1.1s0-2,0-4
	c-6.6,1.4-7.9-3.2-7.9-3.2c-1.1-2.7-2.6-3.5-2.6-3.5c-2.1-1.5,0.2-1.4,0.2-1.4c2.4,0.2,3.6,2.4,3.6,2.4c2.1,3.6,5.5,2.6,6.9,2
	c0.2-1.5,0.8-2.6,1.5-3.2c-5.2-0.6-10.7-2.6-10.7-11.7c0-2.6,0.9-4.7,2.4-6.4c-0.2-0.6-1.1-3,0.2-6.3c0,0,2-0.6,6.5,2.4
	c1.9-0.5,3.9-0.8,5.9-0.8s4,0.3,5.9,0.8c4.5-3.1,6.5-2.4,6.5-2.4c1.3,3.3,0.5,5.7,0.2,6.3c1.5,1.7,2.4,3.8,2.4,6.4
	c0,9.1-5.5,11.1-10.8,11.7c0.9,0.7,1.6,2.2,1.6,4.4c0,3.2,0,5.7,0,6.5c0,0.6,0.4,1.4,1.6,1.1c9.4-3.1,16.1-12,16.1-22.5
	C47.7,11.4,37.1,0.8,24.1,0.8z"/>
</svg>
