<?xml version="1.0" encoding="utf-8"?>
<!-- Generator: Adobe Illustrator 25.0.0, SVG Export Plug-In . SVG Version: 6.00 Build 0)  -->
<svg version="1.1" id="Capa_1" xmlns="http://www.w3.org/2000/svg" xmlns:xlink="http://www.w3.org/1999/xlink" x="0px" y="0px"
	 viewBox="0 0 48.2 48.2" style="enable-background:new 0 0 48.2 48.2;" xml:space="preserve">
<style type="text/css">
	.st0{fill:#BF2626;}
	.st1{fill:#FFFFFF;}
</style>
<circle class="st0" cx="24.1" cy="24.1" r="23.6"/>
<path class="st1" d="M14.2,19.7h4.6v14.7h-4.6C14.2,34.4,14.2,19.7,14.2,19.7z M16.5,12.4c1.5,0,2.6,1.2,2.6,2.6
	c0,1.5-1.2,2.7-2.6,2.7s-2.6-1.2-2.6-2.6C13.8,13.6,15,12.4,16.5,12.4"/>
<path class="st1" d="M21.6,19.7H26v2h0.1c0.6-1.1,2.1-2.4,4.3-2.4c4.6,0,5.5,3,5.5,7v8.1h-4.5v-7.1c0-1.7,0-3.9-2.4-3.9
	s-2.7,1.9-2.7,3.8v7.3h-4.6C21.6,34.4,21.6,19.7,21.6,19.7z"/>
</svg>
