<?xml version="1.0" encoding="utf-8"?>
<!-- Generator: Adobe Illustrator 25.0.0, SVG Export Plug-In . SVG Version: 6.00 Build 0)  -->
<svg version="1.1" id="Capa_1" xmlns="http://www.w3.org/2000/svg" xmlns:xlink="http://www.w3.org/1999/xlink" x="0px" y="0px"
	 viewBox="0 0 205.5 40.5" style="enable-background:new 0 0 205.5 40.5;" xml:space="preserve">
<style type="text/css">
	.st0{enable-background:new    ;}
	.st1{fill:#FFFFFF;}
	.st2{fill:#BF2726;}
</style>
<g class="st0">
	<path class="st1" d="M6.7,20.1l9.6,3.2v5.4L0.8,22.4v-4.7l15.5-6.3v5.4L6.7,20.1z"/>
</g>
<g class="st0">
	<path class="st1" d="M23.2,5.2l10.5,24.2L44.3,5.2h1.4v25.6h-0.9V6.6L34.1,30.8h-0.8L22.8,6.7v24.1h-0.9V5.2H23.2z"/>
	<path class="st1" d="M66.5,23.2H54l-2.8,7.6h-1l9.6-25.6h1.2l9.6,25.6h-1L66.5,23.2z M54.4,22.2h11.8L60.3,6.3L54.4,22.2z"/>
	<path class="st1" d="M84.3,19.8h-8.9v11h-0.9V5.2h8.2c2.6,0,4.6,0.7,6.1,2s2.3,3.1,2.3,5.4c0,1.7-0.5,3.3-1.6,4.6s-2.5,2.1-4.1,2.4
		l6.8,11v0.2h-1L84.3,19.8z M75.4,18.9h8.1c2,0,3.6-0.6,4.8-1.8s1.8-2.7,1.8-4.5c0-2-0.7-3.6-2-4.7s-3.2-1.7-5.5-1.7h-7.1V18.9z"/>
</g>
<g class="st0">
	<path class="st2" d="M116.9,22.1c-0.1,1.8-0.6,3.4-1.4,4.7s-2.1,2.4-3.7,3.2s-3.4,1.1-5.4,1.1c-3.4,0-6-1.1-7.9-3.3
		s-2.9-5.3-2.9-9.3v-1.3c0-2.5,0.4-4.7,1.3-6.6s2.1-3.3,3.8-4.4s3.5-1.5,5.7-1.5c3.1,0,5.6,0.8,7.5,2.5s3,3.9,3.2,6.8h-6.2
		c0-1.6-0.4-2.7-1.2-3.4s-1.9-1-3.4-1c-1.5,0-2.7,0.6-3.4,1.7s-1.1,3-1.1,5.5v1.8c0,2.7,0.3,4.7,1,5.9s1.9,1.8,3.5,1.8
		c1.4,0,2.5-0.3,3.3-1s1.1-1.7,1.2-3.2H116.9z"/>
	<path class="st2" d="M141.5,18.5c0,2.5-0.5,4.7-1.4,6.6s-2.2,3.4-3.9,4.4s-3.6,1.6-5.8,1.6s-4.1-0.5-5.8-1.5s-3-2.4-3.9-4.3
		s-1.4-4-1.5-6.4v-1.4c0-2.5,0.5-4.7,1.4-6.6s2.2-3.4,4-4.4s3.7-1.6,5.9-1.6c2.2,0,4.1,0.5,5.8,1.5s3,2.5,4,4.4s1.4,4.1,1.4,6.5
		V18.5z M135.2,17.5c0-2.5-0.4-4.5-1.3-5.8s-2.1-2-3.6-2c-3.1,0-4.7,2.3-4.9,7l0,1.9c0,2.5,0.4,4.4,1.2,5.8s2.1,2,3.7,2
		c1.6,0,2.8-0.7,3.6-2s1.3-3.2,1.3-5.7V17.5z"/>
	<path class="st2" d="M144.7,30.8V5.2h8.2c2.3,0,4.3,0.5,6.1,1.5s3.2,2.5,4.2,4.3s1.5,4,1.5,6.3v1.2c0,2.3-0.5,4.4-1.5,6.3
		s-2.4,3.3-4.2,4.4s-3.8,1.6-6,1.6H144.7z M150.9,10v16.1h2.1c1.8,0,3.1-0.6,4.1-1.9s1.4-3.1,1.4-5.6v-1.1c0-2.5-0.5-4.3-1.4-5.6
		s-2.3-1.9-4.1-1.9H150.9z"/>
	<path class="st2" d="M183.8,19.9h-9.7v6.1h11.5v4.7H168V5.2h17.7V10h-11.5v5.4h9.7V19.9z"/>
	<path class="st2" d="M197.7,20l-9.6-3.3v-5.4l15.5,6.3v4.7l-15.5,6.3v-5.4L197.7,20z"/>
</g>
</svg>
