<?xml version="1.0" encoding="utf-8"?>
<!-- Generator: Adobe Illustrator 24.2.3, SVG Export Plug-In . SVG Version: 6.00 Build 0)  -->
<svg version="1.1" id="Capa_1" xmlns="http://www.w3.org/2000/svg" xmlns:xlink="http://www.w3.org/1999/xlink" x="0px" y="0px"
	 viewBox="0 0 48.2 48.2" style="enable-background:new 0 0 48.2 48.2;" xml:space="preserve">
<style type="text/css">
	.st0{fill:#FFFFFF;}
</style>
<g>
	<path class="st0" d="M24.1,0.5c-13,0-23.6,10.6-23.6,23.6s10.6,23.6,23.6,23.6s23.6-10.6,23.6-23.6S37.1,0.5,24.1,0.5z M37.1,16.3
		c-0.6,0.8-1.3,1.5-2.1,2.1c-0.1,0.1-0.3,0.2-0.3,0.4c0,4.3-1.1,8.5-4.2,11.6c-3.9,3.9-9.8,5-15.1,3.5c-1-0.3-2-0.7-2.9-1.2
		c-0.3-0.1-0.6-0.3-0.9-0.5c-0.1-0.1-0.2-0.2-0.1-0.2s0.2,0,0.4,0c1.5,0.1,3-0.1,4.4-0.6c0.8-0.2,2.4-0.8,2.9-1.5
		c-0.2-0.1-0.4-0.1-0.6-0.1c-1.4-0.4-3.3-1.1-4.2-3.5c-0.1-0.2,0-0.2,0.1-0.2c1.2,0,1.6,0,2-0.1c-0.2,0-0.5-0.1-0.7-0.2
		c-1.8-0.7-3.2-2.4-3.4-4.3c0-0.2,0-0.4,0-0.6c0-0.1,0.1-0.2,0.2-0.1c0.9,0.5,1.9,0.6,2,0.6c-0.2-0.2-0.4-0.4-0.6-0.6
		c-1.5-1.5-2.1-4.5-0.9-6.4c0.1-0.1,0.2-0.1,0.3,0c2.8,3.3,6.4,4.8,10.6,5.4c0.1,0,0.1,0,0.1-0.1C24,19,24,18.2,24.2,17.5
		c0.1-0.8,0.5-1.5,1-2.1s1.1-1,1.8-1.4c0.7-0.3,1.4-0.5,2.2-0.6c0.8,0,1.6,0.1,2.3,0.4c0.6,0.2,1,0.5,1.5,0.9
		c0.1,0.1,0.2,0.2,0.3,0.3c0,0.1,0.1,0.1,0.2,0.1c1.1-0.3,2.1-0.7,3.1-1.2c0,0,0,0,0.1,0V14c-0.2,0.6-0.5,1.1-0.9,1.6
		c-0.3,0.3-0.9,1-1.3,1.1c0.9-0.1,1.8-0.3,2.6-0.7c0.1,0,0.1-0.1,0.1-0.1C37.2,16,37.2,16.1,37.1,16.3z"/>
</g>
</svg>
